<mxfile host="app.diagrams.net" agent="Mozilla/5.0 (Windows NT 10.0; Win64; x64) AppleWebKit/537.36 (KHTML, like Gecko) Chrome/138.0.0.0 Safari/537.36" version="28.0.7">
  <diagram name="Page-1" id="co583FoI-3QHPy9dHQlo">
    <mxGraphModel dx="623" dy="332" grid="1" gridSize="10" guides="1" tooltips="1" connect="1" arrows="1" fold="1" page="1" pageScale="1" pageWidth="827" pageHeight="1169" math="0" shadow="0">
      <root>
        <mxCell id="0" />
        <mxCell id="1" parent="0" />
        <mxCell id="bRXQcyas2CH32H_-d2qi-7" value="" style="edgeStyle=orthogonalEdgeStyle;rounded=0;orthogonalLoop=1;jettySize=auto;html=1;" edge="1" parent="1" source="bRXQcyas2CH32H_-d2qi-2" target="bRXQcyas2CH32H_-d2qi-6">
          <mxGeometry relative="1" as="geometry" />
        </mxCell>
        <mxCell id="bRXQcyas2CH32H_-d2qi-9" value="" style="edgeStyle=orthogonalEdgeStyle;rounded=0;orthogonalLoop=1;jettySize=auto;html=1;" edge="1" parent="1" source="bRXQcyas2CH32H_-d2qi-2" target="bRXQcyas2CH32H_-d2qi-6">
          <mxGeometry relative="1" as="geometry" />
        </mxCell>
        <mxCell id="bRXQcyas2CH32H_-d2qi-2" value="Plan&amp;nbsp;" style="ellipse;whiteSpace=wrap;html=1;" vertex="1" parent="1">
          <mxGeometry x="340" y="20" width="140" height="80" as="geometry" />
        </mxCell>
        <mxCell id="bRXQcyas2CH32H_-d2qi-14" style="edgeStyle=orthogonalEdgeStyle;rounded=0;orthogonalLoop=1;jettySize=auto;html=1;entryX=0.5;entryY=0;entryDx=0;entryDy=0;" edge="1" parent="1" source="bRXQcyas2CH32H_-d2qi-6" target="bRXQcyas2CH32H_-d2qi-12">
          <mxGeometry relative="1" as="geometry" />
        </mxCell>
        <mxCell id="bRXQcyas2CH32H_-d2qi-6" value="Develop" style="ellipse;whiteSpace=wrap;html=1;" vertex="1" parent="1">
          <mxGeometry x="340" y="130" width="140" height="80" as="geometry" />
        </mxCell>
        <mxCell id="bRXQcyas2CH32H_-d2qi-16" value="" style="edgeStyle=orthogonalEdgeStyle;rounded=0;orthogonalLoop=1;jettySize=auto;html=1;" edge="1" parent="1" source="bRXQcyas2CH32H_-d2qi-12" target="bRXQcyas2CH32H_-d2qi-15">
          <mxGeometry relative="1" as="geometry" />
        </mxCell>
        <mxCell id="bRXQcyas2CH32H_-d2qi-12" value="Build" style="ellipse;whiteSpace=wrap;html=1;" vertex="1" parent="1">
          <mxGeometry x="345" y="240" width="130" height="80" as="geometry" />
        </mxCell>
        <mxCell id="bRXQcyas2CH32H_-d2qi-19" value="" style="edgeStyle=orthogonalEdgeStyle;rounded=0;orthogonalLoop=1;jettySize=auto;html=1;" edge="1" parent="1" source="bRXQcyas2CH32H_-d2qi-15" target="bRXQcyas2CH32H_-d2qi-18">
          <mxGeometry relative="1" as="geometry" />
        </mxCell>
        <mxCell id="bRXQcyas2CH32H_-d2qi-15" value="Test" style="ellipse;whiteSpace=wrap;html=1;" vertex="1" parent="1">
          <mxGeometry x="345" y="350" width="130" height="80" as="geometry" />
        </mxCell>
        <mxCell id="bRXQcyas2CH32H_-d2qi-21" value="" style="edgeStyle=orthogonalEdgeStyle;rounded=0;orthogonalLoop=1;jettySize=auto;html=1;" edge="1" parent="1" source="bRXQcyas2CH32H_-d2qi-18" target="bRXQcyas2CH32H_-d2qi-20">
          <mxGeometry relative="1" as="geometry" />
        </mxCell>
        <mxCell id="bRXQcyas2CH32H_-d2qi-18" value="Release" style="ellipse;whiteSpace=wrap;html=1;" vertex="1" parent="1">
          <mxGeometry x="345" y="460" width="130" height="80" as="geometry" />
        </mxCell>
        <mxCell id="bRXQcyas2CH32H_-d2qi-23" value="" style="edgeStyle=orthogonalEdgeStyle;rounded=0;orthogonalLoop=1;jettySize=auto;html=1;" edge="1" parent="1" source="bRXQcyas2CH32H_-d2qi-20" target="bRXQcyas2CH32H_-d2qi-22">
          <mxGeometry relative="1" as="geometry" />
        </mxCell>
        <mxCell id="bRXQcyas2CH32H_-d2qi-20" value="Deploy" style="ellipse;whiteSpace=wrap;html=1;" vertex="1" parent="1">
          <mxGeometry x="345" y="570" width="130" height="80" as="geometry" />
        </mxCell>
        <mxCell id="bRXQcyas2CH32H_-d2qi-25" value="" style="edgeStyle=orthogonalEdgeStyle;rounded=0;orthogonalLoop=1;jettySize=auto;html=1;" edge="1" parent="1" source="bRXQcyas2CH32H_-d2qi-22" target="bRXQcyas2CH32H_-d2qi-24">
          <mxGeometry relative="1" as="geometry" />
        </mxCell>
        <mxCell id="bRXQcyas2CH32H_-d2qi-22" value="Operate" style="ellipse;whiteSpace=wrap;html=1;" vertex="1" parent="1">
          <mxGeometry x="345" y="680" width="130" height="80" as="geometry" />
        </mxCell>
        <mxCell id="bRXQcyas2CH32H_-d2qi-24" value="Monitor" style="ellipse;whiteSpace=wrap;html=1;" vertex="1" parent="1">
          <mxGeometry x="345" y="790" width="130" height="80" as="geometry" />
        </mxCell>
      </root>
    </mxGraphModel>
  </diagram>
</mxfile>
